<?xml version="1.0" encoding="UTF-8" standalone="no"?>
<!-- Created with Inkscape (http://www.inkscape.org/) -->

<svg
   version="1.1"
   id="svg3872"
   width="800"
   height="800"
   viewBox="0 0 800 800"
   sodipodi:docname="royal-crown-publicdomainvectors.org.svg"
   inkscape:version="1.2 (dc2aedaf03, 2022-05-15)"
   xmlns:inkscape="http://www.inkscape.org/namespaces/inkscape"
   xmlns:sodipodi="http://sodipodi.sourceforge.net/DTD/sodipodi-0.dtd"
   xmlns="http://www.w3.org/2000/svg"
   xmlns:svg="http://www.w3.org/2000/svg">
  <defs
     id="defs3876">
    <clipPath
       clipPathUnits="userSpaceOnUse"
       id="clipPath3890">
      <path
         d="M 0,600 H 600 V 0 H 0 Z"
         id="path3888" />
    </clipPath>
  </defs>
  <sodipodi:namedview
     id="namedview3874"
     pagecolor="#ffffff"
     bordercolor="#000000"
     borderopacity="0.25"
     inkscape:showpageshadow="2"
     inkscape:pageopacity="0.0"
     inkscape:pagecheckerboard="0"
     inkscape:deskcolor="#d1d1d1"
     showgrid="false"
     inkscape:zoom="1.04625"
     inkscape:cx="399.5221"
     inkscape:cy="400.4779"
     inkscape:window-width="1920"
     inkscape:window-height="1017"
     inkscape:window-x="-8"
     inkscape:window-y="-8"
     inkscape:window-maximized="1"
     inkscape:current-layer="g3880">
    <inkscape:page
       x="0"
       y="0"
       id="page3878"
       width="800"
       height="800" />
  </sodipodi:namedview>
  <g
     id="g3880"
     inkscape:groupmode="layer"
     inkscape:label="Page 1"
     transform="matrix(1.3333333,0,0,-1.3333333,0,800)">
    <path
       d="M 0,0 H 600 V 600 H 0 Z"
       style="fill:#463d3b;fill-opacity:1;fill-rule:nonzero;stroke:none"
       id="path3882" />
    <g
       id="g3884">
      <g
         id="g3886"
         clip-path="url(#clipPath3890)">
        <g
           id="g3892"
           transform="translate(166.0293,203.5967)">
          <path
             d="m 0,0 c 18.329,25.184 71.224,43.387 133.633,43.387 62.41,0 115.306,-18.203 133.633,-43.387 h 0.01 l 56.379,110.617 c -0.516,0.536 -1.04,1.07 -1.565,1.601 -9.757,-9.574 -21.942,-14.677 -33.378,-13.67 4.569,-9.662 4.48,-22.756 -1.232,-35.043 C 278.539,44.272 259.205,34.3 244.297,41.23 c -14.908,6.932 -19.745,28.141 -10.804,47.375 6.738,14.491 19.376,23.723 31.574,24.429 -6.973,10.756 -8.722,26.052 -4.205,41.315 -6.677,3.116 -13.604,5.994 -20.757,8.615 -5.794,-15.033 -17.858,-26.623 -32.728,-31.082 6.518,-7.305 10.517,-17.179 10.517,-28.049 0,-22.501 -17.135,-40.742 -38.273,-40.742 -21.137,0 -38.27,18.241 -38.27,40.742 0,16.355 9.053,30.457 22.117,36.941 -11.506,9.335 -19.099,23.853 -19.703,40.285 -3.36,0.102 -6.736,0.156 -10.132,0.156 -3.396,0 -6.773,-0.054 -10.131,-0.156 -0.604,-16.432 -8.197,-30.95 -19.703,-40.285 13.064,-6.484 22.118,-20.586 22.118,-36.941 0,-22.501 -17.135,-40.742 -38.272,-40.742 -21.137,0 -38.272,18.241 -38.272,40.742 0,10.87 4,20.744 10.517,28.049 -14.871,4.459 -26.935,16.049 -32.729,31.082 -7.153,-2.621 -14.08,-5.499 -20.758,-8.615 C 10.921,139.086 9.172,123.79 2.198,113.034 14.396,112.328 27.035,103.096 33.773,88.605 42.714,69.371 37.877,48.162 22.969,41.23 8.061,34.3 -11.273,44.272 -20.214,63.505 c -5.713,12.287 -5.8,25.381 -1.232,35.043 -11.437,-1.007 -23.621,4.096 -33.378,13.67 -0.525,-0.532 -1.048,-1.065 -1.564,-1.601 L -0.01,0 Z"
             style="fill:#df8c16;fill-opacity:1;fill-rule:evenodd;stroke:none"
             id="path3894" />
        </g>
        <g
           id="g3896"
           transform="translate(149.936,232.5771)">
          <path
             d="M 0,0 C 20.536,28.218 79.802,48.612 149.726,48.612 219.651,48.612 278.917,28.218 299.453,0 l 0.011,0.003 63.166,123.937 c -0.577,0.601 -1.163,1.198 -1.752,1.793 -10.931,-10.726 -24.582,-16.444 -37.398,-15.316 5.121,-10.826 5.021,-25.496 -1.379,-39.263 -10.018,-21.549 -31.681,-32.721 -48.383,-24.957 -16.704,7.767 -22.123,31.53 -12.105,53.079 7.548,16.237 21.708,26.582 35.377,27.372 -7.814,12.05 -9.775,29.19 -4.713,46.29 -7.481,3.492 -15.242,6.716 -23.256,9.654 -6.491,-16.844 -20.007,-29.831 -36.67,-34.826 7.301,-8.185 11.783,-19.249 11.783,-31.428 0,-25.21 -19.198,-45.648 -42.881,-45.648 -23.683,0 -42.88,20.438 -42.88,45.648 0,18.326 10.143,34.126 24.78,41.391 -12.891,10.458 -21.399,26.726 -22.073,45.136 -3.765,0.114 -7.548,0.176 -11.354,0.176 -3.804,0 -7.587,-0.062 -11.352,-0.176 -0.676,-18.41 -9.183,-34.678 -22.074,-45.136 14.636,-7.265 24.781,-23.065 24.781,-41.391 0,-25.21 -19.198,-45.648 -42.881,-45.648 -23.682,0 -42.881,20.438 -42.881,45.648 0,12.179 4.481,23.243 11.783,31.428 -16.662,4.995 -30.178,17.982 -36.67,34.826 -8.014,-2.938 -15.776,-6.162 -23.257,-9.654 5.062,-17.1 3.101,-34.24 -4.713,-46.29 C 16.131,125.858 30.291,115.513 37.84,99.276 47.858,77.727 42.438,53.964 25.735,46.197 9.032,38.433 -12.63,49.605 -22.648,71.154 c -6.401,13.767 -6.499,28.437 -1.381,39.263 -12.814,-1.128 -26.465,4.59 -37.397,15.316 -0.588,-0.595 -1.175,-1.192 -1.752,-1.793 L -0.011,0.003 Z"
             style="fill:#fab40a;fill-opacity:1;fill-rule:evenodd;stroke:none"
             id="path3898" />
        </g>
        <g
           id="g3900"
           transform="translate(299.668,281.1895)">
          <path
             d="m 0,0 c 82.695,0 149.732,-21.764 149.732,-48.609 v -72.319 H 104.997 C 77.972,-129.56 40.904,-134.886 0,-134.886 c -40.904,0 -77.971,5.326 -104.996,13.958 h -44.747 v 72.319 h 0.011 C -149.732,-21.764 -82.694,0 0,0"
             style="fill:#fbca07;fill-opacity:1;fill-rule:evenodd;stroke:none"
             id="path3902" />
        </g>
        <g
           id="g3904"
           transform="translate(299.668,208.873)">
          <path
             d="m 0,0 c 82.695,0 149.732,-21.764 149.732,-48.611 0,-26.847 -67.037,-48.611 -149.732,-48.611 -82.694,0 -149.733,21.764 -149.733,48.611 C -149.733,-21.764 -82.694,0 0,0"
             style="fill:#df8c16;fill-opacity:1;fill-rule:evenodd;stroke:none"
             id="path3906" />
        </g>
        <g
           id="g3908"
           transform="translate(299.6621,422.0581)">
          <path
             d="M 0,0 C 18.257,0 33.146,14.89 33.146,33.146 33.146,51.402 18.257,66.291 0,66.291 -18.255,66.291 -33.145,51.402 -33.145,33.146 -33.145,14.89 -18.255,0 0,0"
             style="fill:#fbca07;fill-opacity:1;fill-rule:evenodd;stroke:none"
             id="path3910" />
        </g>
        <g
           id="g3912"
           transform="translate(295.5591,484.0151)">
          <path
             d="M 0,0 C 11.182,0 18.292,-9.19 15.878,-20.526 13.466,-31.864 2.446,-41.054 -8.737,-41.054 c -11.181,0 -18.291,9.19 -15.879,20.528 C -22.203,-9.19 -11.183,0 0,0"
             style="fill:#f9de1c;fill-opacity:1;fill-rule:evenodd;stroke:none"
             id="path3914" />
        </g>
        <g
           id="g3916"
           transform="translate(308.1357,465.1855)">
          <path
             d="m 0,0 c 4.565,0 8.287,3.722 8.287,8.287 0,4.563 -3.722,8.285 -8.287,8.285 -4.563,0 -8.286,-3.722 -8.286,-8.285 C -8.286,3.722 -4.563,0 0,0"
             style="fill:#faf462;fill-opacity:1;fill-rule:evenodd;stroke:none"
             id="path3918" />
        </g>
        <g
           id="g3920"
           transform="translate(315.708,455.8096)">
          <path
             d="M 0,0 C 2.282,0 4.144,1.861 4.144,4.143 4.144,6.425 2.282,8.287 0,8.287 -2.282,8.287 -4.143,6.425 -4.143,4.143 -4.143,1.861 -2.282,0 0,0"
             style="fill:#faf462;fill-opacity:1;fill-rule:evenodd;stroke:none"
             id="path3922" />
        </g>
        <g
           id="g3924"
           transform="translate(436.5518,399.7598)">
          <path
             d="M 0,0 C 18.256,0 33.145,14.889 33.145,33.145 33.145,51.401 18.256,66.29 0,66.29 -18.256,66.29 -33.145,51.401 -33.145,33.145 -33.145,14.889 -18.256,0 0,0"
             style="fill:#fbca07;fill-opacity:1;fill-rule:evenodd;stroke:none"
             id="path3926" />
        </g>
        <g
           id="g3928"
           transform="translate(432.4492,461.7158)">
          <path
             d="M 0,0 C 11.182,0 18.291,-9.19 15.879,-20.527 13.467,-31.864 2.445,-41.054 -8.736,-41.054 c -11.183,0 -18.292,9.19 -15.879,20.527 C -22.203,-9.19 -11.183,0 0,0"
             style="fill:#f9de1c;fill-opacity:1;fill-rule:evenodd;stroke:none"
             id="path3930" />
        </g>
        <g
           id="g3932"
           transform="translate(445.0254,442.8862)">
          <path
             d="m 0,0 c 4.564,0 8.287,3.722 8.287,8.287 0,4.564 -3.723,8.286 -8.287,8.286 -4.562,0 -8.285,-3.722 -8.285,-8.286 C -8.285,3.722 -4.562,0 0,0"
             style="fill:#faf462;fill-opacity:1;fill-rule:evenodd;stroke:none"
             id="path3934" />
        </g>
        <g
           id="g3936"
           transform="translate(452.5977,433.5112)">
          <path
             d="M 0,0 C 2.282,0 4.143,1.861 4.143,4.143 4.143,6.425 2.282,8.286 0,8.286 -2.282,8.286 -4.143,6.425 -4.143,4.143 -4.143,1.861 -2.282,0 0,0"
             style="fill:#faf462;fill-opacity:1;fill-rule:evenodd;stroke:none"
             id="path3938" />
        </g>
        <g
           id="g3940"
           transform="translate(521.0967,343.6743)">
          <path
             d="M 0,0 C 18.254,0 33.143,14.889 33.143,33.145 33.143,51.401 18.254,66.29 0,66.29 -18.257,66.29 -33.146,51.401 -33.146,33.145 -33.146,14.889 -18.257,0 0,0"
             style="fill:#fbca07;fill-opacity:1;fill-rule:evenodd;stroke:none"
             id="path3942" />
        </g>
        <g
           id="g3944"
           transform="translate(516.9922,405.6304)">
          <path
             d="M 0,0 C 11.181,0 18.29,-9.191 15.877,-20.527 13.468,-31.864 2.446,-41.054 -8.735,-41.054 c -11.184,0 -18.293,9.19 -15.88,20.527 C -22.202,-9.191 -11.181,0 0,0"
             style="fill:#f9de1c;fill-opacity:1;fill-rule:evenodd;stroke:none"
             id="path3946" />
        </g>
        <g
           id="g3948"
           transform="translate(529.5703,386.8013)">
          <path
             d="m 0,0 c 4.562,0 8.284,3.722 8.284,8.286 0,4.564 -3.722,8.286 -8.284,8.286 -4.564,0 -8.287,-3.722 -8.287,-8.286 C -8.287,3.722 -4.564,0 0,0"
             style="fill:#faf462;fill-opacity:1;fill-rule:evenodd;stroke:none"
             id="path3950" />
        </g>
        <g
           id="g3952"
           transform="translate(537.1426,377.4248)">
          <path
             d="M 0,0 C 2.28,0 4.143,1.861 4.143,4.144 4.143,6.426 2.28,8.287 0,8.287 -2.284,8.287 -4.144,6.426 -4.144,4.144 -4.144,1.861 -2.284,0 0,0"
             style="fill:#faf462;fill-opacity:1;fill-rule:evenodd;stroke:none"
             id="path3954" />
        </g>
        <g
           id="g3956"
           transform="translate(78.9038,343.6743)">
          <path
             d="M 0,0 C 18.256,0 33.146,14.889 33.146,33.145 33.146,51.401 18.256,66.29 0,66.29 -18.256,66.29 -33.146,51.401 -33.146,33.145 -33.146,14.889 -18.256,0 0,0"
             style="fill:#fbca07;fill-opacity:1;fill-rule:evenodd;stroke:none"
             id="path3958" />
        </g>
        <g
           id="g3960"
           transform="translate(74.7993,405.6304)">
          <path
             d="M 0,0 C 11.183,0 18.292,-9.191 15.88,-20.527 13.467,-31.864 2.447,-41.054 -8.736,-41.054 c -11.182,0 -18.291,9.19 -15.879,20.527 C -22.203,-9.191 -11.182,0 0,0"
             style="fill:#f9de1c;fill-opacity:1;fill-rule:evenodd;stroke:none"
             id="path3962" />
        </g>
        <g
           id="g3964"
           transform="translate(87.3774,386.8013)">
          <path
             d="m 0,0 c 4.564,0 8.287,3.722 8.287,8.286 0,4.564 -3.723,8.286 -8.287,8.286 -4.563,0 -8.287,-3.722 -8.287,-8.286 C -8.287,3.722 -4.563,0 0,0"
             style="fill:#faf462;fill-opacity:1;fill-rule:evenodd;stroke:none"
             id="path3966" />
        </g>
        <g
           id="g3968"
           transform="translate(94.9497,377.4248)">
          <path
             d="M 0,0 C 2.282,0 4.143,1.861 4.143,4.144 4.143,6.426 2.282,8.287 0,8.287 -2.282,8.287 -4.143,6.426 -4.143,4.144 -4.143,1.861 -2.282,0 0,0"
             style="fill:#faf462;fill-opacity:1;fill-rule:evenodd;stroke:none"
             id="path3970" />
        </g>
        <g
           id="g3972"
           transform="translate(160.8413,399.7598)">
          <path
             d="M 0,0 C 18.256,0 33.145,14.889 33.145,33.145 33.145,51.401 18.256,66.29 0,66.29 -18.256,66.29 -33.145,51.401 -33.145,33.145 -33.145,14.889 -18.256,0 0,0"
             style="fill:#fbca07;fill-opacity:1;fill-rule:evenodd;stroke:none"
             id="path3974" />
        </g>
        <g
           id="g3976"
           transform="translate(156.7373,461.7158)">
          <path
             d="M 0,0 C 11.183,0 18.292,-9.19 15.879,-20.527 13.467,-31.864 2.446,-41.054 -8.735,-41.054 c -11.183,0 -18.292,9.19 -15.88,20.527 C -22.202,-9.19 -11.182,0 0,0"
             style="fill:#f9de1c;fill-opacity:1;fill-rule:evenodd;stroke:none"
             id="path3978" />
        </g>
        <g
           id="g3980"
           transform="translate(169.3154,442.8862)">
          <path
             d="m 0,0 c 4.564,0 8.286,3.722 8.286,8.287 0,4.564 -3.722,8.286 -8.286,8.286 -4.564,0 -8.286,-3.722 -8.286,-8.286 C -8.286,3.722 -4.564,0 0,0"
             style="fill:#faf462;fill-opacity:1;fill-rule:evenodd;stroke:none"
             id="path3982" />
        </g>
        <g
           id="g3984"
           transform="translate(176.8872,433.5112)">
          <path
             d="M 0,0 C 2.282,0 4.144,1.861 4.144,4.143 4.144,6.425 2.282,8.286 0,8.286 -2.282,8.286 -4.143,6.425 -4.143,4.143 -4.143,1.861 -2.282,0 0,0"
             style="fill:#faf462;fill-opacity:1;fill-rule:evenodd;stroke:none"
             id="path3986" />
        </g>
        <g
           id="g3988"
           transform="translate(299.668,196.8809)">
          <path
             d="M 0,0 C 72.386,0 131.065,-16.395 131.065,-36.619 131.065,-56.845 72.386,-73.24 0,-73.24 c -72.384,0 -131.065,16.395 -131.065,36.621 C -131.065,-16.395 -72.384,0 0,0"
             style="fill:#a5681d;fill-opacity:1;fill-rule:evenodd;stroke:none"
             id="path3990" />
        </g>
        <g
           id="g3992"
           transform="translate(299.668,196.8809)">
          <path
             d="M 0,0 C 41.525,0 131.065,-16.395 131.065,-36.619 131.065,-56.845 53.173,-73.24 0,-73.24 c -53.172,0 -64.903,3.608 -88.185,9.529 2.829,26.076 24.85,48.827 57.23,62.682 C -21.028,-0.357 -41.525,0 0,0"
             style="fill:#bf781c;fill-opacity:1;fill-rule:evenodd;stroke:none"
             id="path3994" />
        </g>
        <g
           id="g3996"
           transform="translate(299.6621,223.3916)">
          <path
             d="m 0,0 c 12.224,0 22.191,9.97 22.191,22.192 0,12.222 -9.967,22.192 -22.191,22.192 -12.222,0 -22.19,-9.97 -22.19,-22.192 C -22.19,9.97 -12.222,0 0,0"
             style="fill:#f9de1c;fill-opacity:1;fill-rule:evenodd;stroke:none"
             id="path3998" />
        </g>
        <g
           id="g4000"
           transform="translate(296.9155,264.873)">
          <path
             d="m 0,0 c 7.487,0 12.247,-6.153 10.631,-13.743 -1.615,-7.59 -8.993,-13.742 -16.48,-13.742 -7.487,0 -12.247,6.152 -10.631,13.742 C -14.866,-6.153 -7.486,0 0,0"
             style="fill:#faf462;fill-opacity:1;fill-rule:evenodd;stroke:none"
             id="path4002" />
        </g>
        <g
           id="g4004"
           transform="translate(305.335,252.2666)">
          <path
             d="m 0,0 c 3.056,0 5.549,2.491 5.549,5.548 0,3.056 -2.493,5.548 -5.549,5.548 -3.055,0 -5.547,-2.492 -5.547,-5.548 C -5.547,2.491 -3.055,0 0,0"
             style="fill:#fefeeb;fill-opacity:1;fill-rule:evenodd;stroke:none"
             id="path4006" />
        </g>
        <g
           id="g4008"
           transform="translate(310.4053,245.9883)">
          <path
             d="M 0,0 C 1.528,0 2.773,1.246 2.773,2.774 2.773,4.303 1.528,5.549 0,5.549 -1.527,5.549 -2.773,4.303 -2.773,2.774 -2.773,1.246 -1.527,0 0,0"
             style="fill:#fefeeb;fill-opacity:1;fill-rule:evenodd;stroke:none"
             id="path4010" />
        </g>
        <g
           id="g4012"
           transform="translate(191.2817,208.5215)">
          <path
             d="M 0,0 C 9.833,0 17.854,9.97 17.854,22.192 17.854,34.415 9.833,44.384 0,44.384 -9.834,44.384 -17.855,34.415 -17.855,22.192 -17.855,9.97 -9.834,0 0,0"
             style="fill:#f9de1c;fill-opacity:1;fill-rule:evenodd;stroke:none"
             id="path4014" />
        </g>
        <g
           id="g4016"
           transform="translate(189.0708,250.0029)">
          <path
             d="m 0,0 c 6.023,0 9.853,-6.152 8.553,-13.742 -1.299,-7.591 -7.236,-13.743 -13.259,-13.743 -6.023,0 -9.853,6.152 -8.553,13.743 C -11.96,-6.152 -6.023,0 0,0"
             style="fill:#faf462;fill-opacity:1;fill-rule:evenodd;stroke:none"
             id="path4018" />
        </g>
        <g
           id="g4020"
           transform="translate(195.8457,237.3965)">
          <path
             d="m 0,0 c 2.459,0 4.464,2.492 4.464,5.548 0,3.057 -2.005,5.548 -4.464,5.548 -2.458,0 -4.463,-2.491 -4.463,-5.548 C -4.463,2.492 -2.458,0 0,0"
             style="fill:#fefeeb;fill-opacity:1;fill-rule:evenodd;stroke:none"
             id="path4022" />
        </g>
        <g
           id="g4024"
           transform="translate(199.9248,231.1191)">
          <path
             d="M 0,0 C 1.229,0 2.232,1.246 2.232,2.775 2.232,4.303 1.229,5.549 0,5.549 -1.229,5.549 -2.232,4.303 -2.232,2.775 -2.232,1.246 -1.229,0 0,0"
             style="fill:#fefeeb;fill-opacity:1;fill-rule:evenodd;stroke:none"
             id="path4026" />
        </g>
        <g
           id="g4028"
           transform="translate(409.2295,208.5215)">
          <path
             d="m 0,0 c 9.835,0 17.855,9.97 17.855,22.192 0,12.223 -8.02,22.192 -17.855,22.192 -9.833,0 -17.853,-9.969 -17.853,-22.192 C -17.853,9.97 -9.833,0 0,0"
             style="fill:#f9de1c;fill-opacity:1;fill-rule:evenodd;stroke:none"
             id="path4030" />
        </g>
        <g
           id="g4032"
           transform="translate(407.0195,250.0029)">
          <path
             d="m 0,0 c 6.023,0 9.854,-6.152 8.555,-13.742 -1.3,-7.591 -7.238,-13.743 -13.261,-13.743 -6.022,0 -9.853,6.152 -8.553,13.743 C -11.959,-6.152 -6.023,0 0,0"
             style="fill:#faf462;fill-opacity:1;fill-rule:evenodd;stroke:none"
             id="path4034" />
        </g>
        <g
           id="g4036"
           transform="translate(413.7949,237.3965)">
          <path
             d="m 0,0 c 2.458,0 4.464,2.492 4.464,5.548 0,3.057 -2.006,5.548 -4.464,5.548 -2.459,0 -4.464,-2.491 -4.464,-5.548 C -4.464,2.492 -2.459,0 0,0"
             style="fill:#fefeeb;fill-opacity:1;fill-rule:evenodd;stroke:none"
             id="path4038" />
        </g>
        <g
           id="g4040"
           transform="translate(417.873,231.1191)">
          <path
             d="M 0,0 C 1.23,0 2.233,1.246 2.233,2.775 2.233,4.303 1.23,5.549 0,5.549 -1.229,5.549 -2.231,4.303 -2.231,2.775 -2.231,1.246 -1.229,0 0,0"
             style="fill:#fefeeb;fill-opacity:1;fill-rule:evenodd;stroke:none"
             id="path4042" />
        </g>
      </g>
    </g>
  </g>
</svg>
